<?xml version="1.0" encoding="utf-8"?>
<!-- Generator: Adobe Illustrator 21.1.0, SVG Export Plug-In . SVG Version: 6.00 Build 0)  -->
<svg version="1.1" id="Layer_1" xmlns="http://www.w3.org/2000/svg" xmlns:xlink="http://www.w3.org/1999/xlink" x="0px" y="0px"
	 viewBox="0 0 300 300" style="enable-background:new 0 0 300 300;" xml:space="preserve">
<style type="text/css">
	.st0{fill:#686D6D;}
</style>
<g>
	<path class="st0" d="M29.3,33.4C26,38.9,26.6,43.9,17.7,45C11.3,45.9,6,42.5,6,33.4c0-6.4,5-9.6,11.6-11.6
		C23.8,19.8,31.8,29.1,29.3,33.4z"/>
	<path class="st0" d="M47.9,41.5c0,4.8-7.5,4.1-10.9,7c-3.7,3.1-8.1-2-8.1-6.8s5-10.5,9.5-10.5S47.9,36.8,47.9,41.5z"/>
	<path class="st0" d="M29,12.6c0,4-3.8,9.7-8.1,7.2c-3.8-2.3-9.1,0.6-10.1-6.9c-0.5-3.9,7.6-9.4,12-9.4S29,8.7,29,12.6z"/>
	<path class="st0" d="M49.8,56.7c-1.5,3.7-3.5,9.8-7.5,9.8s-7-7.8-7-11.8s3.3-5.3,7.3-5.3S52.7,49.5,49.8,56.7z"/>
</g>
</svg>
