<?xml version="1.0" encoding="utf-8"?>
<!-- Generator: Adobe Illustrator 21.1.0, SVG Export Plug-In . SVG Version: 6.00 Build 0)  -->
<svg version="1.1" id="Layer_1" xmlns="http://www.w3.org/2000/svg" xmlns:xlink="http://www.w3.org/1999/xlink" x="0px" y="0px"
	 viewBox="0 0 3000 5000" style="enable-background:new 0 0 3000 5000;" xml:space="preserve">
<style type="text/css">
	.st0{fill:#825433;}
	.st1{fill:#8E6C55;}
	.st2{fill:#E07E7E;}
	.st3{fill:#3D1E0F;}
	.st4{fill:#F1E9CD;}
</style>
<g>
	<path class="st0" d="M454,190.8c-1.5,34.5-47.8,61.4-81.8,55.3c-16.3-2.9-61.2-30.7-59.7-65.1s33.4-76.8,67.8-75.3
		C414.8,107.1,455.5,156.3,454,190.8z"/>
	<path class="st0" d="M313.3,206.6c9.1,33.3-26.8,73-61,77.6c-16.5,2.2-67.6-10.5-76.7-43.8s8.3-83.3,41.6-92.4
		C250.5,138.9,304.2,173.3,313.3,206.6z"/>
	<path class="st1" d="M590,231.6c21.2,66.4-8.2,124.5-105.1,174.2c-90.1,46.2-197.3,67.6-232.5-42.6
		c-21.2-66.4-7.8-190.7,102.7-211.4C454.5,133.1,568.8,165.1,590,231.6z"/>
	<path class="st0" d="M534.5,375.8c-134.6-82.2-52.9-221.3-52.9-221.3s85.9,13.7,108.3,77C621.6,320.9,534.5,375.8,534.5,375.8z"/>
	
		<ellipse transform="matrix(0.163 -0.9866 0.9866 0.163 -44.6445 568.0574)" class="st2" cx="312.5" cy="310.3" rx="31.7" ry="43.7"/>
	<g>
		<g>
			<path class="st3" d="M490,246c8.5,2.9,16.9,5.7,25.4,8.6c6.1,2.1,8.7-7.6,2.7-9.6c-8.5-2.9-16.9-5.7-25.4-8.6
				C486.6,234.3,484,244,490,246L490,246z"/>
		</g>
	</g>
</g>
<g>
	<g>
		<path class="st3" d="M299.7,253.4c23.4,10.5,46.8,21.1,70.2,31.6c0.6-4.6,1.2-9.1,1.8-13.7c-17.8,5.4-35.6,10.8-53.5,16.2
			c-9.2,2.8-5.3,17.3,4,14.5c17.8-5.4,35.6-10.8,53.5-16.2c5.6-1.7,8-10.9,1.8-13.7c-23.4-10.5-46.8-21.1-70.2-31.6
			c-3.7-1.7-8-1-10.3,2.7C295.1,246.3,296,251.8,299.7,253.4L299.7,253.4z"/>
	</g>
</g>
<g>
	<polygon class="st4" points="571.4,305.3 498.3,301.6 527,344.1 	"/>
	<g>
		<path class="st3" d="M571.4,299.6c-24.4-1.2-48.7-2.4-73.1-3.6c-4.1-0.2-7.2,5-4.9,8.5c9.5,14.2,19.1,28.3,28.6,42.5
			c2.1,3.1,6,3.6,8.8,1.1c14.8-13,29.6-25.9,44.4-38.9c5.5-4.8-2.5-12.7-8-8c-14.8,13-29.6,25.9-44.4,38.9c2.9,0.4,5.9,0.8,8.8,1.1
			c-9.5-14.2-19.1-28.3-28.6-42.5c-1.6,2.8-3.2,5.6-4.9,8.5c24.4,1.2,48.7,2.4,73.1,3.6C578.7,311.2,578.6,300,571.4,299.6z"/>
	</g>
</g>
</svg>
