<?xml version="1.0" encoding="utf-8"?>
<!-- Generator: Adobe Illustrator 21.1.0, SVG Export Plug-In . SVG Version: 6.00 Build 0)  -->
<svg version="1.1" id="Layer_1" xmlns="http://www.w3.org/2000/svg" xmlns:xlink="http://www.w3.org/1999/xlink" x="0px" y="0px"
	 viewBox="0 0 3000 5000" style="enable-background:new 0 0 3000 5000;" xml:space="preserve">
<style type="text/css">
	.st0{fill:#825433;}
	.st1{fill:#8E6C55;}
	.st2{fill:#E07E7E;}
	.st3{fill:#3D1E0F;}
</style>
<g>
	<path class="st0" d="M455.8,191.8c-1.5,34.5-47.8,61.4-81.8,55.3c-16.3-2.9-61.2-30.7-59.7-65.1s33.4-76.8,67.8-75.3
		C416.6,108.1,457.3,157.3,455.8,191.8z"/>
	<path class="st0" d="M315,207.6c9.1,33.3-26.8,73-61,77.6c-16.5,2.2-67.6-10.5-76.7-43.8s8.3-83.3,41.6-92.4S306,174.3,315,207.6z"
		/>
	<path class="st1" d="M591.7,232.5c21.2,66.4-8.2,124.5-105.1,174.2c-90.1,46.2-197.3,67.6-232.5-42.6
		c-21.2-66.4-7.8-190.7,102.7-211.4C456.3,134.1,570.5,166.1,591.7,232.5z"/>
	<path class="st0" d="M536.3,376.8c-134.6-82.2-52.9-221.3-52.9-221.3s85.9,13.7,108.3,77C623.4,321.9,536.3,376.8,536.3,376.8z"/>
	
		<ellipse transform="matrix(0.163 -0.9866 0.9866 0.163 -44.139 570.6161)" class="st2" cx="314.3" cy="311.3" rx="31.7" ry="43.7"/>
	<g>
		<g>
			<path class="st3" d="M296.3,277.2c-4.8-18.3,1.4-36.5,19.1-44.2c14.2-6.2,33.1-3.6,43.4,9.7c2.5,3.2,6.4,4.9,10.3,2.7
				c3.2-1.8,5.1-7.1,2.7-10.3c-11.7-15.3-29.8-22.5-48.9-19.7c-17.7,2.6-33.4,14.1-40,30.9c-4.4,11.1-4,23.4-1,34.8
				C284.3,290.5,298.8,286.6,296.3,277.2L296.3,277.2z"/>
		</g>
	</g>
	<path class="st3" d="M380.5,258.8c0,17.8-9.6,37.2-27.4,37.2s-37.1-19.3-37.1-37.2s14.4-32.3,32.2-32.3S380.5,240.9,380.5,258.8z"
		/>
	<g>
		<g>
			<path class="st3" d="M491.8,247c8.5,2.9,16.9,5.7,25.4,8.6c6.1,2.1,8.7-7.6,2.7-9.6c-8.5-2.9-16.9-5.7-25.4-8.6
				C488.3,235.3,485.7,245,491.8,247L491.8,247z"/>
		</g>
	</g>
</g>
<g>
	<g>
		<path class="st3" d="M564,308.5c-16.8,2.3-33.5,4.6-50.3,6.9c-4,0.6-6.2,5.7-5.2,9.2c1.2,4.3,5.2,5.8,9.2,5.2
			c16.8-2.3,33.5-4.6,50.3-6.9c4-0.6,6.2-5.7,5.2-9.2C572,309.4,568,308,564,308.5L564,308.5z"/>
	</g>
</g>
</svg>
