<?xml version="1.0" encoding="utf-8"?>
<!-- Generator: Adobe Illustrator 21.1.0, SVG Export Plug-In . SVG Version: 6.00 Build 0)  -->
<svg version="1.1" id="Layer_1" xmlns="http://www.w3.org/2000/svg" xmlns:xlink="http://www.w3.org/1999/xlink" x="0px" y="0px"
	 viewBox="0 0 3000 5000" style="enable-background:new 0 0 3000 5000;" xml:space="preserve">
<style type="text/css">
	.st0{fill:#825433;}
	.st1{fill:#8E6C55;}
	.st2{fill:#E07E7E;}
	.st3{fill:#3D1E0F;}
</style>
<g>
	<path class="st0" d="M454,190.8c-1.5,34.5-47.8,61.4-81.8,55.3c-16.3-2.9-61.2-30.7-59.7-65.1s33.4-76.8,67.8-75.3
		C414.8,107.1,455.5,156.3,454,190.8z"/>
	<path class="st0" d="M313.3,206.6c9.1,33.3-26.8,73-61,77.6c-16.5,2.2-67.6-10.5-76.7-43.8s8.3-83.3,41.6-92.4
		C250.5,138.9,304.2,173.3,313.3,206.6z"/>
	<path class="st1" d="M590,231.6c21.2,66.4-8.2,124.5-105.1,174.2c-90.1,46.2-197.3,67.6-232.5-42.6
		c-21.2-66.4-7.8-190.7,102.7-211.4C454.5,133.1,568.8,165.1,590,231.6z"/>
	<path class="st0" d="M534.5,375.8c-134.6-82.2-52.9-221.3-52.9-221.3s85.9,13.7,108.3,77C621.6,320.9,534.5,375.8,534.5,375.8z"/>
	
		<ellipse transform="matrix(0.163 -0.9866 0.9866 0.163 -44.6445 568.0574)" class="st2" cx="312.5" cy="310.3" rx="31.7" ry="43.7"/>
	<g>
		<g>
			<path class="st3" d="M490,246c8.5,2.9,16.9,5.7,25.4,8.6c6.1,2.1,8.7-7.6,2.7-9.6c-8.5-2.9-16.9-5.7-25.4-8.6
				C486.6,234.3,484,244,490,246L490,246z"/>
		</g>
	</g>
	<g>
		<g>
			<path class="st3" d="M305.6,302.9c22.3-5.5,44.7-11,67-16.5c7.9-1.9,12.6-10.8,10.5-18.5c-2.2-8-10.6-12.4-18.5-10.5
				c-22.3,5.5-44.7,11-67,16.5c-7.9,1.9-12.6,10.8-10.5,18.5C289.4,300.4,297.8,304.8,305.6,302.9L305.6,302.9z"/>
		</g>
	</g>
	<g>
		<g>
			<path class="st3" d="M499.2,318c4.9,6.9,14,12.6,22.7,12.7c6.8,0,10.2-5.1,15.6-8.3c6.3-3.8,11.6,5.4,17.4,7.1
				c9.2,2.8,19.9-3.5,24.3-11.5c3.5-6.3-6.2-12-9.7-5.7c-2.9,5.2-9.2,8.3-14.1,4.6c-5.5-4.2-10.7-8.2-18.2-6.5
				c-5.7,1.3-8.6,5.9-13.5,8.4c-4.4,2.3-12.2-2.9-14.8-6.5C504.7,306.5,495,312.1,499.2,318L499.2,318z"/>
		</g>
	</g>
</g>
</svg>
