<?xml version="1.0" encoding="utf-8"?>
<!-- Generator: Adobe Illustrator 21.1.0, SVG Export Plug-In . SVG Version: 6.00 Build 0)  -->
<svg version="1.1" id="Layer_1" xmlns="http://www.w3.org/2000/svg" xmlns:xlink="http://www.w3.org/1999/xlink" x="0px" y="0px"
	 viewBox="0 0 3000 5000" style="enable-background:new 0 0 3000 5000;" xml:space="preserve">
<style type="text/css">
	.st0{fill:#825433;}
	.st1{fill:#8E6C55;}
	.st2{fill:#E07E7E;}
	.st3{fill:#3D1E0F;}
</style>
<path class="st0" d="M454,190.8c-1.5,34.5-47.8,61.4-81.8,55.3c-16.3-2.9-61.2-30.7-59.7-65.1s33.4-76.8,67.8-75.3
	C414.8,107.1,455.5,156.3,454,190.8z"/>
<path class="st0" d="M313.3,206.6c9.1,33.3-26.8,73-61,77.6c-16.5,2.2-67.6-10.5-76.7-43.8s8.3-83.3,41.6-92.4
	C250.5,138.9,304.2,173.3,313.3,206.6z"/>
<path class="st1" d="M590,231.6c21.2,66.4-8.2,124.5-105.1,174.2c-90.1,46.2-197.3,67.6-232.5-42.6
	c-21.2-66.4-7.8-190.7,102.7-211.4C454.5,133.1,568.8,165.1,590,231.6z"/>
<path class="st0" d="M534.5,375.8c-134.6-82.2-52.9-221.3-52.9-221.3s85.9,13.7,108.3,77C621.6,320.9,534.5,375.8,534.5,375.8z"/>
<ellipse transform="matrix(0.163 -0.9866 0.9866 0.163 -44.6445 568.0574)" class="st2" cx="312.5" cy="310.3" rx="31.7" ry="43.7"/>
<g>
	<g>
		<path class="st3" d="M490,246c8.5,2.9,16.9,5.7,25.4,8.6c6.1,2.1,8.7-7.6,2.7-9.6c-8.5-2.9-16.9-5.7-25.4-8.6
			C486.6,234.3,484,244,490,246L490,246z"/>
	</g>
</g>
<g>
	<g>
		<path class="st3" d="M517.9,319.1c7.6-9.5,17.9-13.4,29.8-10.6c5.4,1.3,10.8,3.5,15.5,6.7c6,4.1,11.6-5.6,5.7-9.7
			c-18.6-12.7-44.2-12.7-58.9,5.6C505.5,316.7,513.4,324.7,517.9,319.1L517.9,319.1z"/>
	</g>
</g>
<g>
	<g>
		<path class="st3" d="M302,276.2c-4.8-18.3,1.4-36.5,19.1-44.2c14.2-6.2,33.1-3.6,43.4,9.7c2.5,3.2,6.4,4.9,10.3,2.7
			c3.2-1.8,5.1-7.1,2.7-10.3c-11.7-15.3-29.8-22.5-48.9-19.7c-17.7,2.6-33.4,14.1-40,30.9c-4.4,11.1-4,23.4-1,34.8
			C290,289.6,304.4,285.6,302,276.2L302,276.2z"/>
	</g>
</g>
<path class="st3" d="M386.1,257.8c0,17.8-9.6,37.2-27.4,37.2s-37.1-19.3-37.1-37.2s14.4-32.3,32.2-32.3S386.1,239.9,386.1,257.8z"/>
</svg>
