<?xml version="1.0" encoding="utf-8"?>
<!-- Generator: Adobe Illustrator 21.1.0, SVG Export Plug-In . SVG Version: 6.00 Build 0)  -->
<svg version="1.1" id="Layer_1" xmlns="http://www.w3.org/2000/svg" xmlns:xlink="http://www.w3.org/1999/xlink" x="0px" y="0px"
	 viewBox="0 0 300 300" style="enable-background:new 0 0 300 300;" xml:space="preserve">
<style type="text/css">
	.st0{fill:#30B1B6;}
</style>
<g>
	<path class="st0" d="M5.6,13.8c-0.2-0.3-0.3-0.6-0.3-0.9c0-0.1,0-0.2,0-0.3C5.4,12,5.7,11.6,6,11.3c0.1-0.1,0.2-0.2,0.3-0.3
		c0.1-0.1,0.3-0.3,0.4-0.4C6.9,10.5,7,10.4,7,10.4l0.1-0.1L6.9,10C6.2,8.8,5.8,7.9,5.6,7.4C5.4,7,5.3,6.7,5.3,6.4
		c0-0.2,0-0.4,0.1-0.5C5.6,5.4,5.9,5.1,6.4,5c0.1,0,0.2,0,0.4,0C6.9,4.9,7,5,7.2,5c0,0,0.1,0,0.2,0.1c0.1,0,0.1,0.1,0.1,0.1
		c0.3,0.2,0.6,0.5,0.9,1c0,0,0.1,0.1,0.1,0.2c0.1,0.1,0.2,0.3,0.2,0.4C8.8,6.9,8.9,7,9,7.1C9,7.2,9.1,7.3,9.1,7.3c0,0,0,0,0,0
		c0,0,0,0,0,0c0,0,0,0,0.1-0.1c0-0.1,0.1-0.1,0.1-0.2C9.4,7,9.4,6.9,9.5,6.8c0.1-0.1,0.1-0.2,0.1-0.3C9.7,6.4,9.9,6.2,10,5.9
		c0.2-0.2,0.3-0.4,0.5-0.6c0,0,0.1-0.1,0.1-0.1c0,0,0.1-0.1,0.1-0.1c0,0,0,0,0,0c0.3-0.2,0.6-0.4,1-0.4h0.1c0.4,0,0.8,0.1,1.1,0.4
		c0.3,0.3,0.5,0.7,0.5,1.2v0.1c0,0.2,0,0.4-0.1,0.7c-0.1,0.2-0.1,0.4-0.2,0.6c-0.1,0.2-0.3,0.5-0.5,0.8c-0.3,0.6-0.8,1.2-1.3,1.8
		c0,0.1-0.1,0.1-0.1,0.1c0,0,0,0.1,0,0.1c0.2,0.3,0.4,0.5,0.5,0.6c0.1,0.2,0.2,0.3,0.3,0.4c0.1,0.1,0.1,0.2,0.2,0.3
		c0.1,0.3,0.2,0.6,0.2,0.9c0,0.1,0,0.2,0,0.3c-0.1,0.6-0.5,0.9-1,1.1c-0.1,0-0.1,0-0.2,0s-0.1,0-0.2,0c-0.1,0-0.2,0-0.3,0
		s-0.1,0-0.2-0.1c-0.4-0.1-0.9-0.5-1.3-1c0,0,0,0,0,0c0,0,0,0-0.1-0.1c0,0,0,0,0,0c0,0,0,0-0.1,0.1c-0.1,0.1-0.1,0.2-0.2,0.3
		c-0.1,0.1-0.2,0.2-0.3,0.3c-0.1,0.1-0.2,0.2-0.2,0.2C8,14,7.9,14.1,7.8,14.2c-0.1,0.1-0.3,0.1-0.4,0.2c-0.2,0-0.4,0.1-0.5,0.1
		c-0.1,0-0.2,0-0.3,0C6.1,14.3,5.8,14.1,5.6,13.8z"/>
</g>
</svg>
