<?xml version="1.0" encoding="utf-8"?>
<!-- Generator: Adobe Illustrator 21.1.0, SVG Export Plug-In . SVG Version: 6.00 Build 0)  -->
<svg version="1.1" id="Layer_1" xmlns="http://www.w3.org/2000/svg" xmlns:xlink="http://www.w3.org/1999/xlink" x="0px" y="0px"
	 viewBox="0 0 300 300" style="enable-background:new 0 0 300 300;" xml:space="preserve">
<style type="text/css">
	.st0{fill:#5F3011;stroke:#F1E9CD;stroke-width:0.8;stroke-miterlimit:10;}
	.st1{fill:#839439;stroke:#F1E9CD;stroke-width:0.8;stroke-miterlimit:10;}
	.st2{fill:#F47B20;stroke:#F1E9CD;stroke-width:0.8;stroke-miterlimit:10;}
	.st3{fill:#F5B879;}
</style>
<g>
	<path class="st0" d="M24,17.5c2.4-3.7,5-6.6,6.9-8.8c1.1-1.3,4.5,2.7,4.3,5.1s-3.8-0.6-7.8,5.4"/>
	<path class="st1" d="M23.4,6.2c4.4,2.8,3.5,7.8,2.9,10c-0.2,0.7-0.8,1.1-1.5,1c-2.1-0.2-6.4-0.9-7.6-4.1c-1.2-3.5-0.4-5.9,0.1-6.9
		c0.2-0.4,0.5-0.6,0.9-0.8C19.2,5.1,21.3,4.9,23.4,6.2z"/>
	<circle class="st2" cx="16.9" cy="23.7" r="13.1"/>
	<path class="st3" d="M12.1,25.4c0,1.9-1.5,3.4-3.4,3.4s-3.4-3.4-3.4-5.3s1.5-3.3,3.4-3.3S12.1,23.5,12.1,25.4z"/>
	<path class="st3" d="M13.9,30.7c0,1-0.8,1.8-1.8,1.8s-1.8-0.8-1.8-1.8c0-1,1.3-2.4,2.3-2.4S13.9,29.7,13.9,30.7z"/>
</g>
</svg>
