<?xml version="1.0" encoding="utf-8"?>
<!-- Generator: Adobe Illustrator 21.1.0, SVG Export Plug-In . SVG Version: 6.00 Build 0)  -->
<svg version="1.1" id="Layer_1" xmlns="http://www.w3.org/2000/svg" xmlns:xlink="http://www.w3.org/1999/xlink" x="0px" y="0px"
	 viewBox="0 0 300 300" style="enable-background:new 0 0 300 300;" xml:space="preserve">
<style type="text/css">
	.st0{fill:#5F3011;}
	.st1{fill:#839439;}
	.st2{fill:#F47B20;}
	.st3{fill:#F5B879;}
</style>
<g>
	<path class="st0" d="M37,21.5c3.5-5.2,7.2-9.4,9.8-12.5c1.6-1.9,6.4,3.8,6.2,7.3s-5.4-0.9-11.1,7.7"/>
	<path class="st1" d="M36.2,5.4c6.3,4,5.1,11.1,4.1,14.2c-0.3,0.9-1.2,1.6-2.2,1.5c-3-0.2-9.2-1.3-10.8-5.9c-1.8-5-0.6-8.4,0.2-9.9
		c0.3-0.5,0.7-0.9,1.3-1.1C30.2,3.8,33.1,3.4,36.2,5.4z"/>
	<circle class="st2" cx="26.9" cy="30.3" r="18.7"/>
	<path class="st3" d="M20,32.7c0,2.7-2.2,4.9-4.9,4.9s-4.9-4.9-4.9-7.6s2.2-4.8,4.9-4.8S20,30,20,32.7z"/>
	<path class="st3" d="M22.5,40.4c0,1.4-1.2,2.6-2.6,2.6c-1.4,0-2.6-1.2-2.6-2.6c0-1.4,1.9-3.5,3.3-3.5
		C22.1,36.9,22.5,38.9,22.5,40.4z"/>
</g>
</svg>
