<?xml version="1.0" encoding="utf-8"?>
<!-- Generator: Adobe Illustrator 21.1.0, SVG Export Plug-In . SVG Version: 6.00 Build 0)  -->
<svg version="1.1" id="Layer_1" xmlns="http://www.w3.org/2000/svg" xmlns:xlink="http://www.w3.org/1999/xlink" x="0px" y="0px"
	 viewBox="0 0 300 300" style="enable-background:new 0 0 300 300;" xml:space="preserve">
<style type="text/css">
	.st0{fill:#30B1B6;}
	.st1{fill:#5F3011;}
	.st2{fill:#686D6D;}
	.st3{fill:#F1E9CD;}
</style>
<g>
	<rect x="30.4" y="29.1" class="st0" width="45.3" height="4.3"/>
	<path class="st1" d="M72.8,52.4H33.2c-1.2,0-2.3-0.8-2.6-2l-5.1-18.3c-0.5-1.7,0.8-3.8,2.6-3.4c16.9,3,36.7,2.2,49.8,0
		c1.8-0.3,3.1,1.7,2.6,3.4l-5.1,18.3C75.1,51.6,74,52.4,72.8,52.4z"/>
	<path class="st2" d="M77.7,44.1H28.3c-1.2,0-2.2-1-2.2-2.2v-0.1c0-1.2,1-2.2,2.2-2.2h49.4c1.2,0,2.2,1,2.2,2.2v0.1
		C80,43.1,79,44.1,77.7,44.1z"/>
	<path class="st3" d="M16.4,18.7l2.5-6.4c0.4-1.1,1.9-1.1,2.4,0l2.5,6.4c0.1,0.3,0.4,0.6,0.7,0.7l6.4,2.5c1.1,0.4,1.1,1.9,0,2.4
		l-6.4,2.5c-0.3,0.1-0.6,0.4-0.7,0.7L21.3,34c-0.4,1.1-1.9,1.1-2.4,0l-2.5-6.4c-0.1-0.3-0.4-0.6-0.7-0.7l-6.4-2.5
		c-1.1-0.4-1.1-1.9,0-2.4l6.4-2.5C16,19.3,16.3,19,16.4,18.7z"/>
	<path class="st3" d="M29.9,10.8l1.5-3.7c0.2-0.6,1.1-0.6,1.4,0l1.5,3.7c0.1,0.2,0.2,0.3,0.4,0.4l3.7,1.5c0.6,0.2,0.6,1.1,0,1.4
		l-3.7,1.5c-0.2,0.1-0.3,0.2-0.4,0.4l-1.5,3.7c-0.2,0.6-1.1,0.6-1.4,0L29.9,16c-0.1-0.2-0.2-0.3-0.4-0.4l-3.7-1.5
		c-0.6-0.2-0.6-1.1,0-1.4l3.7-1.5C29.7,11.2,29.9,11,29.9,10.8z"/>
</g>
</svg>
