<?xml version="1.0" encoding="utf-8"?>
<!-- Generator: Adobe Illustrator 21.1.0, SVG Export Plug-In . SVG Version: 6.00 Build 0)  -->
<svg version="1.1" id="Layer_1" xmlns="http://www.w3.org/2000/svg" xmlns:xlink="http://www.w3.org/1999/xlink" x="0px" y="0px"
	 viewBox="0 0 300 300" style="enable-background:new 0 0 300 300;" xml:space="preserve">
<style type="text/css">
	.st0{fill:none;stroke:#F47B20;stroke-width:3.5;stroke-linecap:round;stroke-linejoin:round;}
	.st1{fill:none;stroke:#F47B20;stroke-width:3.5;stroke-linecap:round;stroke-linejoin:round;stroke-dasharray:5.6805,5.6805;}
	.st2{fill:none;stroke:#F47B20;stroke-width:3.5;stroke-linecap:round;stroke-linejoin:round;stroke-dasharray:5.3058,5.3058;}
	.st3{fill:#30B1B6;stroke:#F1E9CD;stroke-width:1.5;stroke-miterlimit:10;}
</style>
<g>
	<g>
		<polyline class="st0" points="50.2,45.8 48,47.4 45.3,47 		"/>
		<line class="st1" x1="39.7" y1="46.2" x2="8.8" y2="41.6"/>
		<polyline class="st0" points="6,41.1 3.3,40.7 5.5,39.1 		"/>
		<line class="st2" x1="9.8" y1="36" x2="24.7" y2="24.9"/>
		<polyline class="st0" points="26.8,23.3 29,21.7 31.7,22.1 		"/>
		<line class="st1" x1="37.3" y1="23" x2="68.2" y2="27.6"/>
		<polyline class="st0" points="71,28 73.7,28.4 71.5,30 		"/>
		<line class="st2" x1="67.2" y1="33.2" x2="52.3" y2="44.2"/>
	</g>
</g>
<g>
	<path class="st3" d="M38,39.1c-0.1-0.3-0.2-0.5-0.3-0.7s-0.1-0.5-0.1-0.9c0-0.2,0-0.3,0-0.4c0-0.1,0-0.2,0-0.2v-0.1h-0.8
		c-0.3,0-0.6,0-0.7,0s-0.3,0-0.4-0.1c-1-0.3-1.7-0.9-2.1-1.9c-0.1-0.2-0.1-0.5-0.1-0.8c0-0.2,0-0.4,0.1-0.6c0.1-0.5,0.4-0.9,0.7-1.3
		c0.3-0.3,0.6-0.5,0.9-0.6c0.3-0.1,0.8-0.2,1.3-0.2c0.2,0,0.3,0,0.4,0c0.1,0,0.2,0,0.2,0c0-0.1,0.1-0.3,0.1-0.7c0-0.2,0-0.4,0-0.6
		c0-0.1,0-0.3,0.1-0.4c0.3-1.2,1-1.9,2-2.3c0.3-0.1,0.5-0.1,0.8-0.1c0.9,0,1.6,0.4,2.2,1.2c0.3,0.4,0.4,1,0.4,1.8v0.8l0.5,0h0.3
		c0.9,0,1.6,0.3,2.1,0.9c0.4,0.5,0.7,1.1,0.7,1.7c0,0.5-0.1,0.9-0.4,1.3s-0.6,0.7-1.1,1c-0.2,0.1-0.4,0.2-0.6,0.2s-0.5,0.1-0.9,0.2
		c-0.2,0-0.3,0-0.4,0.1s-0.2,0-0.2,0s0,0.1,0,0.2c0,0.2,0,0.3,0,0.5c0,0.2,0,0.4,0,0.6c0,0.2,0,0.4-0.1,0.4c0,0.2-0.1,0.4-0.2,0.6
		s-0.2,0.4-0.3,0.5c-0.1,0.2-0.2,0.3-0.4,0.5c-0.2,0.2-0.3,0.3-0.4,0.4c-0.4,0.3-0.9,0.4-1.3,0.4c-0.1,0-0.2,0-0.3,0
		C39,40.3,38.4,39.9,38,39.1z"/>
</g>
</svg>
