<?xml version="1.0" encoding="utf-8"?>
<!-- Generator: Adobe Illustrator 21.1.0, SVG Export Plug-In . SVG Version: 6.00 Build 0)  -->
<svg version="1.1" id="Layer_1" xmlns="http://www.w3.org/2000/svg" xmlns:xlink="http://www.w3.org/1999/xlink" x="0px" y="0px"
	 viewBox="0 0 300 300" style="enable-background:new 0 0 300 300;" xml:space="preserve">
<style type="text/css">
	.st0{fill:#A91F23;}
	.st1{fill:none;stroke:#A91F23;stroke-width:8.6435;stroke-miterlimit:10;}
	.st2{fill:#686D6D;}
	.st3{fill:#30B1B6;}
</style>
<g>
	<g>
		<g>
			<path class="st0" d="M14.3,24.5c14.8,0,29.7,0,44.5,0c3.4,0,3.4-5.3,0-5.3c-14.8,0-29.7,0-44.5,0C10.8,19.1,10.8,24.5,14.3,24.5
				L14.3,24.5z"/>
		</g>
	</g>
	<line class="st1" x1="21.7" y1="56.5" x2="21.7" y2="15.5"/>
	<line class="st1" x1="51.3" y1="56.5" x2="51.3" y2="15.5"/>
	<g>
		<g>
			<path class="st0" d="M14.3,37.8c14.8,0,29.7,0,44.5,0c6,0,6-9.3,0-9.3c-14.8,0-29.7,0-44.5,0C8.2,28.5,8.2,37.8,14.3,37.8
				L14.3,37.8z"/>
		</g>
	</g>
	<g>
		<g>
			<path class="st2" d="M56.5,6.9c-13.6,3.4-26.3,3.4-39.9,0C8.2,4.8,4.6,17.7,13,19.7c7.6,1.9,15.7,3.4,23.5,3.4
				c7.8,0,15.9-1.6,23.5-3.4C68.4,17.7,64.8,4.8,56.5,6.9L56.5,6.9z"/>
		</g>
	</g>
	<path class="st3" d="M38.1,31.7h-3.2c-1.7,0-3.1-1.4-3.1-3.1V21c0-1.7,1.4-3.1,3.1-3.1h3.2c1.7,0,3.1,1.4,3.1,3.1v7.5
		C41.2,30.3,39.8,31.7,38.1,31.7z"/>
	<g>
		<g>
			<path class="st3" d="M16.1,58.5c3.7,0,7.4,0,11.1,0c2.6,0,2.6-4,0-4c-3.7,0-7.4,0-11.1,0C13.6,54.5,13.5,58.5,16.1,58.5
				L16.1,58.5z"/>
		</g>
	</g>
	<g>
		<g>
			<path class="st3" d="M45.8,58.5c3.7,0,7.4,0,11.1,0c2.6,0,2.6-4,0-4c-3.7,0-7.4,0-11.1,0C43.2,54.5,43.2,58.5,45.8,58.5
				L45.8,58.5z"/>
		</g>
	</g>
</g>
</svg>
